<svg width="88" height="88" viewBox="0 0 88 88" fill="none" xmlns="http://www.w3.org/2000/svg">
<path d="M82.5 12.8333L80.6667 12.8333V64.1739C80.6667 66.1961 79.0149 67.8332 76.9909 67.8332C55.0367 67.8314 46.3485 74.3177 46.266 74.3819L43.9817 76.1382L41.734 74.3819C41.6515 74.3177 32.9634 67.8314 11.0092 67.8332C8.98521 67.8332 7.33337 66.1961 7.33337 64.1739L7.33337 12.8333H5.50004C3.47421 12.8333 1.83337 14.4741 1.83337 16.4999L1.83337 78.8333C1.83337 80.8591 3.47421 82.4999 5.50004 82.4999H82.5C84.5259 82.4999 86.1667 80.8591 86.1667 78.8333V16.4999C86.1667 14.4741 84.5259 12.8333 82.5 12.8333Z" fill="url(#paint0_linear)"/>
<path d="M42.1667 11.671C38.599 9.67814 29.5515 5.78964 12.87 5.51464C11.8488 5.49814 11 6.33598 11 7.35714L11 62.3571C11 63.36 11.8195 64.1648 12.8223 64.1813C29.5313 64.449 38.5935 68.343 42.1667 70.3376V11.671Z" fill="url(#paint1_linear)"/>
<path d="M75.13 5.51464C58.4485 5.78964 49.401 9.67814 45.8334 11.671L45.8334 70.3376C49.4065 68.343 58.4687 64.449 75.1777 64.1813C76.1805 64.1648 77 63.36 77 62.3571V7.35714C77 6.33598 76.1512 5.49814 75.13 5.51464Z" fill="url(#paint2_linear)"/>
<defs>
<linearGradient id="paint0_linear" x1="44" y1="12.8333" x2="44" y2="82.4999" gradientUnits="userSpaceOnUse">
<stop stop-color="white"/>
<stop offset="1" stop-color="white"/>
</linearGradient>
<linearGradient id="paint1_linear" x1="26.5833" y1="5.5144" x2="26.5833" y2="70.3376" gradientUnits="userSpaceOnUse">
<stop stop-color="white"/>
<stop offset="1" stop-color="white"/>
</linearGradient>
<linearGradient id="paint2_linear" x1="61.4167" y1="5.5144" x2="61.4167" y2="70.3376" gradientUnits="userSpaceOnUse">
<stop stop-color="white"/>
<stop offset="1" stop-color="white"/>
</linearGradient>
</defs>
</svg>
